# xmcd CD database file
#
# Track frame offsets:
#	150
#	19277
#	33525
#
# Disc length: 699 seconds
#
# Revision: 3
# Processed by: cddbd v1.5.2PL0 Copyright (c) Steve Scherf et al.
# Submitted via: CDex 1.82
#
DISCID=1f02b903
DTITLE=Morning Musume - Osaka Koi no Uta
DYEAR=2005
DGENRE=J-Pop
TTITLE0=Osaka Koi no Uta
TTITLE1=Nature is Good!
TTITLE2=Osaka Koi no Uta (Instrumental)
EXTD=YEAR: 2005
EXTT0=
EXTT1=
EXTT2=
PLAYORDER=
